<svg xmlns="http://www.w3.org/2000/svg" viewBox="0 0 333333 333333" shape-rendering="geometricPrecision" text-rendering="geometricPrecision" image-rendering="optimizeQuality" fill-rule="evenodd" clip-rule="evenodd"><path d="M211780 222902c-4683-4757-8163-9846-11624-14906-570-833-1141-1667-1722-2506-8363 6635-18503 10861-31722 10828-14258-35-24992-5484-33795-13535-528-482-1047-973-1559-1471-1260 3503-2862 7692-4576 11603-1632 3723-3386 7233-5087 9769 18335 37175 72521 38470 90085 219zM162996 34489h7341c1372 0 2493 1121 2493 2493v10943l10943-1c1371 0 2494 1123 2494 2494v7341c0 1371-1122 2494-2494 2494h-10943v10942c0 1371-1122 2494-2493 2494h-7341c-1371 0-2493-1122-2493-2494V60253h-10943c-1371 0-2493-1122-2493-2494v-7341c0-1371 1122-2494 2493-2494h10943V36981c0-1370 1122-2493 2493-2493zm51413 181526l4-13c17258 15528 68340 18646 87343 29243 6010 3350 11440 7618 15807 13385 12323 16272 12989 20361 15769 40635-965 10267-6789 16181-18250 17055H18248C6787 315446 963 309531-2 299264c2780-20273 3446-24366 15769-40635 4369-5770 9796-10033 15807-13385 18404-10265 66878-13511 85602-27804 1159-1992 2371-4503 3541-7172 2226-5080 4259-10644 5550-14429-5437-6389-10073-13602-14541-20707l-14703-23379c-5378-8019-8171-15352-8340-21360-81-2832 398-5400 1443-7652 1097-2366 2781-4343 5054-5871 1064-718 2251-1323 3563-1818-952-12681-1309-28663-694-42038 316-3174 924-6350 1812-9521 31347-76967 140189-48724 138328 14913l-916 38159v-2c4076 1241 6689 3826 7759 8013 1184 4635-101 11171-4031 20085l-11-6c-70 162-153 321-248 478l-16756 27598c-6157 10140-12406 20305-20559 28330 733 1053 1467 2126 2201 3200 2738 4004 5489 8026 8780 11752zm-30194-86341c-1215-814-1540-2457-727-3673 814-1214 2457-1540 3673-726 1455 974 3949 1487 6596 1443 2505-42 5038-598 6840-1750 1231-785 2868-423 3652 809 785 1232 423 2868-809 3652-2667 1704-6203 2522-9601 2579-3658 61-7285-770-9623-2335h-1zm-56843 27022c13053-5027 26131-8133 39244-8467 13112-333 26222 2101 39330 8144l16321-36090c14759-33054-105594-59563-110027 1331l15131 35081 1 1zm99543-32530l-15931 35229c-34 75-72 147-110 219 131 329 202 683 206 1041 113 8314-1108 15710-3339 22153 3186-4589 6175-9481 9143-14370l16562-27281c3087-7042 4213-11761 3505-14522-420-1646-2236-2452-5334-2608-657-31-1331-39-2017-20-738 22-1511 70-2315 145-126 11-250 17-374 17l1 1zm-101491 56796c-1813-5910-2923-12633-3137-20194-7-300 30-592 107-867l-16386-37989c-2666 231-4732 872-6204 1863-963 645-1671 1472-2124 2452-506 1092-738 2416-694 3940 128 4472 2472 10320 7005 17058l64 98 14705 23382c2163 3440 4365 6904 6665 10257zm41328-26912c-12820 326-25679 3480-38562 8569 1168 22498 11002 36322 23288 42235 1287 619 2602 1152 3936 1601 3459 997 7207 1550 11300 1559 2049 6 4009-112 5891-341 3563-644 7058-1837 10357-3565 12415-6501 22061-20616 22298-41620-12837-6254-25674-8767-38508-8439h1zm-36209-24376c-1215-814-1540-2457-727-3673 813-1214 2458-1540 3672-726 1485 994 4002 1554 6719 1539 2537-14 5156-550 7178-1724 1267-733 2889-301 3621 965 733 1266 302 2887-965 3621-2851 1657-6420 2411-9813 2430-3722 20-7346-865-9685-2431l1 1zm-1063-11828c-1192 847-2846 570-3693-622-848-1193-570-2845 621-3693 3939-2793 7979-4224 12119-4242 4127-19 8254 1371 12377 4221 1202 830 1504 2480 674 3683-831 1202-2480 1504-3682 674-3211-2219-6325-3302-9348-3288-3009 13-6034 1116-9069 3267l1-2zm57260 0c-1191 847-2845 570-3693-622-848-1193-569-2845 622-3693 3939-2793 7978-4224 12119-4242 4127-19 8253 1371 12377 4221 1203 830 1506 2480 674 3683-831 1202-2480 1504-3683 674-3209-2219-6326-3302-9348-3288-3010 13-6033 1116-9069 3267l1-2z"/></svg>