<svg width="291" height="346" viewBox="0 0 291 346" fill="none" xmlns="http://www.w3.org/2000/svg">
<path d="M238.453 267.125C238.453 275.844 237.328 283.531 235.078 290.188C232.922 296.844 229.828 302.609 225.797 307.484C221.859 312.359 217.172 316.438 211.734 319.719C206.297 323 200.344 325.625 193.875 327.594C187.5 329.562 180.703 330.969 173.484 331.812C166.359 332.656 159.094 333.078 151.688 333.078C141.938 333.078 132.938 332.328 124.688 330.828C116.438 329.422 108.656 327.172 101.344 324.078C94.125 320.891 87.1406 316.812 80.3906 311.844C73.7344 306.875 67.0781 300.828 60.4219 293.703L89.1094 264.594C91.7344 271.062 95.3438 277.062 99.9375 282.594C104.531 288.031 109.547 292.719 114.984 296.656C120.516 300.594 126.234 303.688 132.141 305.938C138.047 308.188 143.625 309.312 148.875 309.312C155.062 309.312 160.875 308.891 166.312 308.047C171.75 307.109 176.484 305.609 180.516 303.547C184.547 301.484 187.688 298.766 189.938 295.391C192.281 291.922 193.453 287.609 193.453 282.453C193.453 278.516 192.562 275.141 190.781 272.328C189 269.516 186.656 267.125 183.75 265.156C180.938 263.094 177.703 261.359 174.047 259.953C170.391 258.547 166.641 257.375 162.797 256.438C159.047 255.406 155.344 254.516 151.688 253.766C148.031 252.922 144.797 252.078 141.984 251.234C136.453 249.641 130.688 247.953 124.688 246.172C118.688 244.297 112.781 242.188 106.969 239.844C101.156 237.5 95.625 234.828 90.375 231.828C85.2188 228.734 80.6719 225.125 76.7344 221C72.7969 216.781 69.6562 211.953 67.3125 206.516C64.9688 200.984 63.7969 194.656 63.7969 187.531C63.7969 179 64.8281 171.453 66.8906 164.891C69.0469 158.234 72.0469 152.469 75.8906 147.594C79.7344 142.719 84.2812 138.641 89.5312 135.359C94.7812 131.984 100.547 129.312 106.828 127.344C113.109 125.281 119.766 123.828 126.797 122.984C133.922 122.047 141.188 121.578 148.594 121.578C158.719 121.578 167.906 122.516 176.156 124.391C184.5 126.266 192.188 128.938 199.219 132.406C206.25 135.875 212.672 140.047 218.484 144.922C224.391 149.703 229.922 155.047 235.078 160.953L206.391 190.062C204.141 183.312 201 177.219 196.969 171.781C193.031 166.344 188.625 161.703 183.75 157.859C178.875 153.922 173.766 150.922 168.422 148.859C163.078 146.703 157.922 145.625 152.953 145.625C146.484 145.625 140.531 146.094 135.094 147.031C129.656 147.875 124.969 149.328 121.031 151.391C117.188 153.359 114.188 156.078 112.031 159.547C109.875 162.922 108.797 167.141 108.797 172.203C108.797 176.234 109.594 179.656 111.188 182.469C112.781 185.281 114.891 187.672 117.516 189.641C120.234 191.609 123.281 193.25 126.656 194.562C130.031 195.781 133.5 196.859 137.062 197.797C140.719 198.734 144.281 199.578 147.75 200.328C151.312 200.984 154.547 201.734 157.453 202.578C163.078 204.172 168.984 205.859 175.172 207.641C181.359 209.422 187.453 211.531 193.453 213.969C199.453 216.312 205.172 219.031 210.609 222.125C216.047 225.219 220.828 228.922 224.953 233.234C229.078 237.453 232.359 242.375 234.797 248C237.234 253.531 238.453 259.906 238.453 267.125Z" fill="white"/>
<rect x="0.5" y="23.5" width="290" height="322" stroke="white"/>
<path d="M124.7 99.7312L116 53.0258C135.52 47.9367 156.481 47.9367 176 53.0258L167.3 99.7312C166.6 103.753 162.3 106.708 157.3 106.708H134.6C132.206 106.711 129.889 106.008 128.073 104.728C126.256 103.447 125.059 101.674 124.7 99.7312V99.7312ZM246 131.333C246 124.849 241.3 119.021 234 116.312C229.188 97.3328 215.557 80.6388 196 69.7708L178.4 109.499C177 112.782 173.2 114.917 169 114.917H123C118.8 114.917 115 112.782 113.6 109.499L96 69.7708C76.468 80.6224 62.8414 97.2825 58 116.23C50.7 119.021 46 124.767 46 131.333L110.5 146.437C114.1 147.257 117.8 147.75 121.5 147.75H170.3C174 147.75 177.7 147.257 181.3 146.437L246 131.333Z" fill="white"/>
</svg>
