<svg xmlns="http://www.w3.org/2000/svg" viewBox="0 0 1333.33 900.96" shape-rendering="geometricPrecision" text-rendering="geometricPrecision" image-rendering="optimizeQuality" fill-rule="evenodd" clip-rule="evenodd"><path d="M0 900.96h253.26V588.61c0-2.04.29-4.07.87-6.11C43.37 612.48 53.85 709.71.29 900.67l-.29.29zm711.05 0h162.43v-.29h31.74v.11h233.76V700.45c0-2.43.56-4.86 1.68-6.91l-118.55.74-113.27-.71c-29.7-59.28-78.94-94.93-192.42-111.07.57 2.04.87 4.07.87 6.11V878.4c-1.88 7.23-3.87 14.68-6.03 22.38l-.19.19zm205.93-404.95v25.21l8.59 11.76c1.3 1.87 2.06 3.92 2.06 5.97 3.17 43.88 14.75 71.13 32.3 88.13 16.99 16.61 40.33 24.27 66.84 28.56 28.76-4.67 51.15-16.8 67.21-35.48 16.62-19.6 26.7-46.86 29.87-81.4.19-1.68.75-3.36 1.5-4.85l7.66-12.69.19-26.14h22.59l-.19 28.56c.19 2.24-.37 4.48-1.68 6.72l-8.03 13.07c-3.92 37.9-15.68 68.52-34.91 91.29-19.98 23.34-47.43 38.09-82.33 43.51-1.13.18-2.43.18-3.74 0-31.36-4.86-59.56-14.01-81.02-35.1-20.91-20.54-35.1-51.53-38.83-99.7l-8.22-11.39c-1.86-2.06-2.8-4.67-2.8-7.47v-28.74h22.78l.19.18zm103.81-172.88c10.82 0 21.46 1.12 31.55 3.17l-1.87 90.92 33.05-80.84c46.48 20.72 81.02 63.85 89.61 115.57h17.93v21.29h-15.87v.37h-309v-.37h-12.88v-21.29h14.93c8.96-53.39 45.37-97.64 94.28-117.44l28.94 81.41 2.99-90.37c8.59-1.49 17.17-2.24 26.13-2.24l.19-.18zm-15.87 505.02h34.54v34.54h-34.54v-34.54zm0-85.32h34.54v34.54h-34.54v-34.54zm165.97 157.95h162.44c-34.54-122.48-27.64-184.83-162.81-204.06.37 1.3.56 2.61.56 3.92v200.33l-.19-.19zM321.08 269.57v39.3l13.39 18.33c2.04 2.91 3.2 6.12 3.2 9.32 4.94 68.41 23 110.91 50.36 137.4 26.49 25.9 62.88 37.84 104.21 44.54 44.83-7.28 79.76-26.2 104.8-55.31 25.9-30.57 41.63-73.07 46.57-126.92.29-2.62 1.17-5.24 2.33-7.57l11.93-19.79.29-40.75h35.23l-.29 44.54c.29 3.49-.58 6.98-2.62 10.48l-12.52 20.37c-6.11 59.09-24.45 106.83-54.44 142.35-31.15 36.39-73.94 59.38-128.37 67.82-1.75.29-3.79.29-5.82 0-48.91-7.57-92.87-21.83-126.35-54.73-32.6-32.02-54.73-80.34-60.54-155.44l-12.81-17.76c-2.91-3.2-4.36-7.28-4.36-11.64v-44.83h35.51l.29.29zM482.93.01c16.89 0 33.48 1.75 49.2 4.94l-2.91 141.77 51.52-126.04c72.48 32.31 126.34 99.56 139.73 180.19h27.95v33.18h-24.75v.58H241.9v-.58h-20.09v-33.18h23.29c13.97-83.25 70.74-152.25 147.01-183.1l45.11 126.92L441.88 3.8C455.27 1.48 468.66.31 482.63.31l.29-.29zm-24.74 787.43h53.85v53.85h-53.85v-53.85zm0-133.04h53.85v53.85h-53.85V654.4zM302.74 900.67H667.2V588.32c0-3.78.87-7.57 2.62-10.77l-184.85 1.17-184.85-1.17c1.75 3.2 2.62 6.99 2.62 10.77v312.35z"/></svg>